<svg xmlns="http://www.w3.org/2000/svg" width="30.658" height="19.417" viewBox="0 0 30.658 19.417">
  <g id="noun-field-2003026" transform="translate(-77.184 -189.115)">
    <path id="Caminho_3262" data-name="Caminho 3262" d="M117.647,113.75H88.011a.511.511,0,0,0-.511.511v18.395a.511.511,0,0,0,.511.511h29.636a.511.511,0,0,0,.511-.511V114.261a.511.511,0,0,0-.511-.511Zm-.511,13.8h-3.577v-8.176h3.577Zm-4.6-2.328a2.026,2.026,0,0,1,0-3.52Zm.511-6.87a.511.511,0,0,0-.511.511v1.712a3.061,3.061,0,0,0,0,5.774v1.712a.511.511,0,0,0,.511.511h4.088v1.584a2.564,2.564,0,0,0-1.993,1.993h-11.8v-5.151a3.572,3.572,0,0,0,0-7.072v-5.151h11.8a2.564,2.564,0,0,0,1.993,1.993v1.584Zm-24.527,11.8v-1.584H92.61a.511.511,0,0,0,.511-.511v-1.712a3.061,3.061,0,0,0,0-5.774v-1.712a.511.511,0,0,0-.511-.511H88.522v-1.584a2.564,2.564,0,0,0,1.993-1.993h11.8v5.151a3.572,3.572,0,0,0,0,7.072v5.151h-11.8a2.564,2.564,0,0,0-1.993-1.993Zm0-10.781H92.1v8.176H88.522Zm4.6,2.328a2.026,2.026,0,0,1,0,3.52Zm9.2,4.264a2.555,2.555,0,0,1,0-5.007Zm1.022-5.007a2.555,2.555,0,0,1,0,5.007Zm13.8-5.255a1.534,1.534,0,0,1-.928-.928h.928Zm-27.686-.928a1.534,1.534,0,0,1-.928.928v-.928Zm-.928,16.445a1.534,1.534,0,0,1,.928.928h-.928Zm27.686.928a1.534,1.534,0,0,1,.928-.928v.928Z" transform="translate(-10.316 75.365)" fill="#fff"/>
  </g>
</svg>
