<svg xmlns="http://www.w3.org/2000/svg" width="29.123" height="21.842" viewBox="0 0 29.123 21.842">
  <g id="Grupo_1131" data-name="Grupo 1131" transform="translate(-39.672 -305)">
    <path id="Caminho_4289" data-name="Caminho 4289" d="M127.82,133.842H153.3a1.826,1.826,0,0,0,1.82-1.82v-18.2A1.826,1.826,0,0,0,153.3,112H127.82a1.826,1.826,0,0,0-1.82,1.82v18.2A1.826,1.826,0,0,0,127.82,133.842Zm-.607-20.022a.608.608,0,0,1,.607-.607H153.3a.608.608,0,0,1,.607.607v18.2a.608.608,0,0,1-.607.607H127.82a.608.608,0,0,1-.607-.607Z" transform="translate(-86.328 193)" fill="#fff"/>
    <path id="Caminho_4290" data-name="Caminho 4290" d="M378.6,234.546h9.1a.607.607,0,0,0,0-1.213h-9.1a.607.607,0,0,0,0,1.214Z" transform="translate(-322.945 77.555)" fill="#fff"/>
    <path id="Caminho_4291" data-name="Caminho 4291" d="M378.6,299.879h9.1a.607.607,0,0,0,0-1.213h-9.1a.607.607,0,1,0,0,1.213Z" transform="translate(-322.945 16.469)" fill="#fff"/>
    <path id="Caminho_4292" data-name="Caminho 4292" d="M378.6,365.216h9.1a.607.607,0,0,0,0-1.213h-9.1a.607.607,0,0,0,0,1.214Z" transform="translate(-322.945 -44.62)" fill="#fff"/>
    <path id="Caminho_4293" data-name="Caminho 4293" d="M212.271,163.582A2.269,2.269,0,1,0,210,161.313,2.27,2.27,0,0,0,212.271,163.582Zm0-3.63a1.361,1.361,0,1,1-1.361,1.361A1.366,1.366,0,0,1,212.271,159.952Z" transform="translate(-163.912 151.326)" fill="#fff"/>
    <path id="Caminho_4294" data-name="Caminho 4294" d="M164.162,268.409h8.168a.455.455,0,0,0,.454-.454v-2.269a4.538,4.538,0,0,0-9.076,0v2.269A.455.455,0,0,0,164.162,268.409Zm.454-2.723a3.63,3.63,0,0,1,7.261,0V267.5h-7.261Z" transform="translate(-119.869 54.187)" fill="#fff"/>
  </g>
</svg>
