<svg xmlns="http://www.w3.org/2000/svg" width="25.664" height="24.532" viewBox="0 0 25.664 24.532">
  <path id="noun-movie-4716590" d="M120.42,37.447a.445.445,0,0,0-.138,0L96.617,41.863a.443.443,0,0,0-.356.515l.7,3.759v15.4a.442.442,0,0,0,.441.441h24.077a.443.443,0,0,0,.441-.441V46.094a.443.443,0,0,0-.441-.444H102.2l18.946-3.532a.443.443,0,0,0,.355-.518l-.706-3.8h0a.442.442,0,0,0-.379-.357Zm-.41.956.544,2.925-.821.153-2.823-2.5Zm-4.2.784,2.825,2.5-3.342.623-2.825-2.5Zm-4.443.828,2.824,2.5-3.339.622-2.827-2.5Zm-4.444.829,2.824,2.5-3.338.622-2.825-2.5Zm-4.444.828,2.824,2.5-3.341.623-2.825-2.5Zm-4.444.829,2.825,2.5-3.1.578-.544-2.926Zm-.187,4.035H101L98.68,49.511h-.835Zm4.277,0h3.4L103.2,49.511H99.8Zm4.518,0h3.4l-2.319,2.976h-3.4Zm4.521,0h3.4l-2.319,2.976h-3.4Zm4.519,0h3.4l-2.32,2.976h-3.4Zm4.519,0h.834v2.976H117.88ZM97.845,50.4h23.188V61.09H97.845Zm9.534,1.845h0a.446.446,0,0,0-.454.442v5.931a.443.443,0,0,0,.677.376l4.8-2.962h0a.442.442,0,0,0,0-.754l-4.8-2.966a.445.445,0,0,0-.223-.066Zm.432,1.238,3.514,2.172-3.514,2.169Z" transform="translate(-96.254 -37.444)" fill="#fff"/>
</svg>
